<?xml version="1.0" encoding="UTF-8" standalone="no"?>
<svg
   xmlns:dc="http://purl.org/dc/elements/1.1/"
   xmlns:cc="http://creativecommons.org/ns#"
   xmlns:rdf="http://www.w3.org/1999/02/22-rdf-syntax-ns#"
   xmlns:svg="http://www.w3.org/2000/svg"
   xmlns="http://www.w3.org/2000/svg"
   viewBox="0 0 58.895 24.578751"
   height="24.578751"
   width="58.895"
   xml:space="preserve"
   version="1.1"
   id="svg2"><metadata
     id="metadata8"><rdf:RDF><cc:Work
         rdf:about=""><dc:format>image/svg+xml</dc:format><dc:type
           rdf:resource="http://purl.org/dc/dcmitype/StillImage" /><dc:title></dc:title></cc:Work></rdf:RDF></metadata><defs
     id="defs6"><clipPath
       id="clipPath66"
       clipPathUnits="userSpaceOnUse"><path
         id="path68"
         d="m 0,207 275.333,0 0,-207 L 0,0 0,207 Z" /></clipPath><clipPath
       id="clipPath156"
       clipPathUnits="userSpaceOnUse"><path
         id="path158"
         d="m 203.917,90.024 47.116,0 0,19.663 -47.116,0 0,-19.663 z" /></clipPath><clipPath
       id="clipPath206"
       clipPathUnits="userSpaceOnUse"><path
         id="path208"
         d="m 203.917,54.4 47.116,0 0,19.663 -47.116,0 0,-19.663 z" /></clipPath></defs><g
     transform="matrix(1.25,0,0,-1.25,-269.28864,137.10875)"
     id="g10"><g
       transform="translate(11.513915,0)"
       id="g152"><g
         clip-path="url(#clipPath156)"
         id="g154"><path
           id="path160"
           style="fill:#231f20;fill-opacity:1;fill-rule:nonzero;stroke:none"
           d="m 251.033,90.024 -47.116,0 0,19.663 47.116,0 0,-19.663 z" /><g
           transform="translate(209.4593,104.8904)"
           id="g162"><path
             id="path164"
             style="fill:#fbee32;fill-opacity:1;fill-rule:nonzero;stroke:none"
             d="m 0,0 0,2.291 -0.048,1.775 c -0.324,0.06 -0.695,0.144 -1.019,0.192 l 0,0.827 2.938,0 0,-0.827 -0.875,-0.192 -0.06,-1.835 0,-5.097 -1.092,0 -4.365,5.289 -0.252,0 0,-2.255 0.06,-2.015 c 0.324,-0.06 0.683,-0.144 1.019,-0.192 l 0,-0.827 -2.914,0 0,0.827 0.863,0.192 0.048,1.979 0,3.91 c -0.3,0.06 -0.623,0.144 -0.911,0.192 l 0,0.851 2.267,0 L -0.264,0 0,0 Z" /></g><g
           transform="translate(216.4569,102.8518)"
           id="g166"><path
             id="path168"
             style="fill:#fbee32;fill-opacity:1;fill-rule:nonzero;stroke:none"
             d="M 0,0 C 1.115,0 2.314,0.792 2.314,2.866 2.314,5.313 0.959,6.32 -0.252,6.32 -1.164,6.32 -2.555,5.757 -2.555,3.406 -2.555,1.091 -1.332,0 0,0 m -0.168,7.256 c 2.555,0 4.354,-1.463 4.354,-3.898 0,-2.711 -1.764,-4.317 -4.474,-4.317 -2.303,0 -4.138,1.379 -4.138,3.921 0,2.975 2.147,4.294 4.258,4.294" /></g><g
           transform="translate(223.4178,109.9758)"
           id="g170"><path
             id="path172"
             style="fill:#fbee32;fill-opacity:1;fill-rule:nonzero;stroke:none"
             d="m 0,0 2.975,0 2.014,0.048 0.192,-2.447 -0.683,0 -0.444,1.427 -1.679,0 0,-5.96 c 0.335,-0.06 0.708,-0.144 1.031,-0.192 l 0,-0.828 -3.838,0 0,0.828 1.02,0.192 0,5.96 -1.668,0 -0.407,-1.427 -0.696,0 c 0.048,0.828 0.12,1.619 0.168,2.447 L 0,0 Z" /></g><g
           transform="translate(234.6493,105.2864)"
           id="g174"><path
             id="path176"
             style="fill:#ffffff;fill-opacity:1;fill-rule:nonzero;stroke:none"
             d="M 0,0 1.99,0 1.21,2.195 0.935,2.195 0,0 Z m 2.314,-0.936 -2.734,0 -0.552,-1.307 c 0.336,-0.06 0.732,-0.144 1.079,-0.192 l 0,-0.827 -2.841,0 0,0.827 0.695,0.192 c 1.031,2.291 2.123,4.641 3.142,6.932 l 1.02,0 2.53,-6.932 c 0.227,-0.06 0.504,-0.144 0.743,-0.192 l 0,-0.827 -3.466,0 0,0.827 0.852,0.192 -0.468,1.307 z" /></g><g
           transform="translate(210.1312,95.3611)"
           id="g178"><path
             id="path180"
             style="fill:#ffffff;fill-opacity:1;fill-rule:nonzero;stroke:none"
             d="m 0,0 c -0.684,-1.763 -1.391,-3.682 -2.063,-5.445 l -0.912,0 -2.122,5.457 -0.24,0 -0.204,-4.329 c 0.312,-0.06 0.672,-0.144 0.996,-0.192 l 0,-0.828 -2.867,0 0,0.828 0.924,0.192 0.311,5.828 c -0.335,0.072 -0.731,0.192 -1.067,0.264 l 0,0.84 2.962,0 2.111,-5.445 0.252,0 c 0.696,1.787 1.463,3.658 2.159,5.445 l 2.854,0 0,-0.852 -1.091,-0.276 0.228,-5.804 c 0.311,-0.06 0.659,-0.144 0.971,-0.192 l 0,-0.828 -3.742,0 0,0.828 0.972,0.192 L 0.264,0 0,0 Z" /></g><g
           transform="translate(218.3289,90.8518)"
           id="g182"><path
             id="path184"
             style="fill:#ffffff;fill-opacity:1;fill-rule:nonzero;stroke:none"
             d="M 0,0 C 1.115,0 2.314,0.792 2.314,2.866 2.314,5.313 0.959,6.32 -0.252,6.32 -1.164,6.32 -2.555,5.757 -2.555,3.406 -2.555,1.091 -1.332,0 0,0 m -0.168,7.256 c 2.555,0 4.354,-1.463 4.354,-3.898 0,-2.711 -1.764,-4.317 -4.474,-4.317 -2.303,0 -4.138,1.379 -4.138,3.921 0,2.975 2.147,4.294 4.258,4.294" /></g><g
           transform="translate(229.8109,92.8904)"
           id="g186"><path
             id="path188"
             style="fill:#ffffff;fill-opacity:1;fill-rule:nonzero;stroke:none"
             d="m 0,0 0,2.291 -0.048,1.775 c -0.324,0.06 -0.695,0.144 -1.019,0.192 l 0,0.827 2.938,0 0,-0.827 -0.875,-0.192 -0.06,-1.835 0,-5.097 -1.092,0 -4.365,5.289 -0.252,0 0,-2.255 0.06,-2.015 c 0.324,-0.06 0.683,-0.144 1.019,-0.192 l 0,-0.827 -2.914,0 0,0.827 0.863,0.192 0.048,1.979 0,3.91 c -0.3,0.06 -0.623,0.144 -0.911,0.192 l 0,0.851 2.267,0 L -0.264,0 0,0 Z" /></g><g
           transform="translate(234.8299,93.2864)"
           id="g190"><path
             id="path192"
             style="fill:#ffffff;fill-opacity:1;fill-rule:nonzero;stroke:none"
             d="M 0,0 1.99,0 1.21,2.195 0.935,2.195 0,0 Z m 2.314,-0.936 -2.734,0 -0.552,-1.307 c 0.336,-0.06 0.732,-0.144 1.079,-0.192 l 0,-0.827 -2.841,0 0,0.827 0.695,0.192 c 1.031,2.291 2.123,4.641 3.142,6.932 l 1.02,0 2.53,-6.932 c 0.227,-0.06 0.504,-0.144 0.743,-0.192 l 0,-0.827 -3.466,0 0,0.827 0.852,0.192 -0.468,1.307 z" /></g><g
           transform="translate(244.5355,90.9597)"
           id="g194"><path
             id="path196"
             style="fill:#ffffff;fill-opacity:1;fill-rule:nonzero;stroke:none"
             d="m 0,0 c 1.367,0 2.615,0.923 2.615,3.238 0,1.919 -0.767,2.843 -2.35,2.843 l -1.308,0 L -1.043,0 0,0 Z m -3.777,-0.936 0,0.828 0.911,0.192 0,5.913 c -0.3,0.06 -0.623,0.144 -0.911,0.191 l 0,0.828 4.689,0 c 2.242,0 3.574,-1.343 3.574,-3.574 0,-2.83 -1.931,-4.378 -4.605,-4.378 l -3.658,0 z" /></g><g
           transform="translate(250.598,91.8831)"
           id="g198"><path
             id="path200"
             style="fill:#ffffff;fill-opacity:1;fill-rule:nonzero;stroke:none"
             d="m 0,0 c 0.587,0 1.043,-0.42 1.043,-0.983 0,-0.552 -0.456,-0.96 -1.043,-0.96 -0.588,0 -1.044,0.408 -1.044,0.96 C -1.044,-0.42 -0.588,0 0,0" /></g></g></g></g></svg>